<svg width="46" height="69" viewBox="0 0 46 69" fill="none" xmlns="http://www.w3.org/2000/svg">
<path d="M44.7539 21.3748C41.7892 10.0511 30.1152 2.78315 18.7915 5.7479C10.9439 7.80256 5.28031 13.9965 3.52954 21.3748" stroke="#f7931e" stroke-width="0.8" stroke-linecap="round"/>
<rect x="14.7809" y="58.4944" width="19.1918" height="9.43582" stroke="#f7931e" stroke-width="0.8"/>
<rect x="11.5367" y="49.0208" width="25.6811" height="9.43582" stroke="#f7931e" stroke-width="0.8"/>
<path d="M6.2334 36.4794L11.678 49.1109" stroke="#f7931e" stroke-width="0.8" stroke-linecap="round"/>
<path d="M42.5205 36.4794L37.0759 49.1108" stroke="#f7931e" stroke-width="0.8" stroke-linecap="round"/>
<path d="M31.8415 40.9038L30.534 39.5963C29.8266 39.97 29.0846 40.2741 28.3185 40.5042V42.3202C28.3209 42.6938 28.2494 43.0641 28.1081 43.4099C27.9668 43.7557 27.7585 44.0701 27.4952 44.3351C27.2319 44.6001 26.9188 44.8104 26.5739 44.9539C26.229 45.0974 25.8591 45.1713 25.4856 45.1713H23.3064C22.9258 45.1714 22.5491 45.0953 22.1983 44.9475C21.8476 44.7997 21.53 44.5832 21.2643 44.3107C20.9986 44.0382 20.7901 43.7153 20.6512 43.3609C20.5122 43.0066 20.4457 42.628 20.4554 42.2476V40.4316C19.6951 40.2013 18.9591 39.8972 18.258 39.5236L16.9324 40.8493M31.8415 40.9038C32.382 41.4199 33.1007 41.708 33.8481 41.708C34.5955 41.708 35.3142 41.4199 35.8547 40.9038M31.8415 40.9038L32.1243 40.6209L32.1209 40.6175M31.8415 40.9038L32.1177 40.6145C32.1188 40.6155 32.1198 40.6165 32.1209 40.6175M35.8547 40.9038L37.3801 39.3965M35.8547 40.9038L35.5785 40.6145C35.5777 40.6152 35.5769 40.616 35.5761 40.6167M35.8547 40.9038L35.5736 40.6192L35.5761 40.6167M37.3801 39.3965C37.908 38.8657 38.2043 38.1475 38.2043 37.399C38.2043 36.6504 37.908 35.9322 37.3801 35.4014M37.3801 39.3965L37.099 39.112L37.0977 39.1132C37.5503 38.6575 37.8043 38.0413 37.8043 37.399C37.8043 36.7562 37.55 36.1396 37.0968 35.6838L37.0973 35.6842L37.3801 35.4014M37.3801 39.3965L37.0965 39.1145L35.5761 40.6167M37.3801 35.4014L36.0182 34.0394C36.378 33.3257 36.6816 32.5849 36.9262 31.8239H38.7421C39.4935 31.8239 40.214 31.5255 40.7453 30.9942C41.2766 30.4629 41.575 29.7424 41.575 28.991V26.8664C41.5756 26.1287 41.2902 25.4196 40.7789 24.8879C40.2675 24.3563 39.57 24.0435 38.8329 24.0153M37.3801 35.4014L37.0965 35.6834L35.7353 34.3223L35.5308 34.1177L35.661 33.8593C36.0115 33.1642 36.3071 32.4427 36.5453 31.7016L36.6346 31.4239H36.9262H38.7421C39.3874 31.4239 40.0062 31.1676 40.4624 30.7114C40.9187 30.2551 41.175 29.6363 41.175 28.991V26.8664V26.8661C41.1755 26.2319 40.9301 25.6223 40.4906 25.1652C40.0527 24.7099 39.4559 24.4413 38.825 24.4153M38.8329 24.0153H37.017C36.7538 23.2531 36.4194 22.5174 36.0182 21.818L37.362 20.4742C37.6261 20.211 37.8356 19.8982 37.9786 19.5539C38.1216 19.2096 38.1952 18.8404 38.1952 18.4675C38.1952 18.0947 38.1216 17.7255 37.9786 17.3812C37.8356 17.0368 37.6261 16.7241 37.362 16.4609M38.8329 24.0153L38.8176 24.415C38.8201 24.4151 38.8225 24.4152 38.825 24.4153M38.8329 24.0153V24.4153H38.825M37.362 16.4609L35.8729 14.99M37.362 16.4609L37.0796 16.7442L35.5977 15.2804M37.362 16.4609L37.0809 16.7455L37.0802 16.7447C37.3067 16.9707 37.4865 17.239 37.6092 17.5345C37.732 17.8303 37.7952 18.1473 37.7952 18.4675C37.7952 18.7877 37.732 19.1048 37.6092 19.4005C37.4864 19.6962 37.3064 19.9648 37.0796 20.1908L37.0791 20.1913L35.7353 21.5351L35.5189 21.7515L35.6712 22.017C36.0599 22.6947 36.3839 23.4074 36.6389 24.1459L36.7319 24.4153H37.017H38.825M35.8729 14.99C35.3243 14.4897 34.6087 14.2124 33.8663 14.2124C33.1238 14.2124 32.4082 14.4897 31.8596 14.99M35.8729 14.99L35.5918 15.2745L35.5977 15.2804M35.8729 14.99L35.6034 15.2855C35.6015 15.2838 35.5996 15.2821 35.5977 15.2804M31.8596 14.99L30.5703 16.3156C29.8712 15.9331 29.135 15.6227 28.373 15.3895V13.4645M31.8596 14.99L32.1291 15.2855C32.132 15.2829 32.1348 15.2803 32.1377 15.2778M31.8596 14.99L32.1464 15.2688L32.1377 15.2778M28.373 13.4645C28.3586 12.7115 28.0469 11.9948 27.506 11.4708C26.965 10.9469 26.2386 10.6582 25.4856 10.668H23.3064M28.373 13.4645H27.973V13.4685M28.373 13.4645L27.973 13.4722C27.973 13.4709 27.973 13.4697 27.973 13.4685M23.3064 10.668C22.5723 10.6865 21.8736 10.9877 21.356 11.5087C20.8384 12.0297 20.5418 12.7303 20.528 13.4645M23.3064 10.668V11.068H23.3117M23.3064 10.668L23.3165 11.0678C23.3149 11.0679 23.3133 11.0679 23.3117 11.068M20.528 13.4645V15.2805C19.7706 15.5187 19.0353 15.8225 18.3307 16.1885L16.9869 14.881C16.7259 14.6176 16.4145 14.4095 16.0713 14.2691C15.7281 14.1287 15.3601 14.0589 14.9893 14.0638C14.2303 14.0583 13.4996 14.3519 12.9554 14.881M20.528 13.4645L20.9279 13.4721C20.928 13.4709 20.928 13.4697 20.928 13.4684M20.528 13.4645H20.928V13.4684M12.9554 14.881L11.4845 16.3701C11.1952 16.638 10.9662 16.9644 10.8128 17.3276C10.6594 17.6908 10.585 18.0825 10.5947 18.4766C10.5952 18.8482 10.6692 19.2161 10.8126 19.5589C10.956 19.9018 11.1658 20.2128 11.43 20.4742L12.7738 21.818C12.3976 22.5201 12.0876 23.2557 11.8477 24.0153H10.0317C9.27558 24.0153 8.5504 24.3157 8.01572 24.8504C7.48104 25.385 7.18066 26.1102 7.18066 26.8664V28.991C7.18066 29.3646 7.25453 29.7345 7.39803 30.0794C7.54153 30.4242 7.75183 30.7374 8.01681 31.0007C8.2818 31.2639 8.59624 31.4722 8.94204 31.6135C9.28785 31.7548 9.65818 31.8263 10.0317 31.8239H11.8477C12.0844 32.5878 12.3882 33.3292 12.7557 34.0394L11.43 35.3651C10.8981 35.8941 10.5976 36.6124 10.5947 37.3626M12.9554 14.881L13.2343 15.1678C13.2352 15.1669 13.2361 15.166 13.2371 15.1651M12.9554 14.881L13.24 15.1621L13.2371 15.1651M10.5947 37.3626C10.5996 38.1143 10.892 38.8355 11.4119 39.3784M10.5947 37.3626L10.9947 37.3642C10.9947 37.3635 10.9947 37.3628 10.9947 37.3621M10.5947 37.3626L10.9947 37.36C10.9947 37.3607 10.9947 37.3614 10.9947 37.3621M11.4119 39.3784L12.9191 40.8493M11.4119 39.3784L11.7007 39.1017C11.6992 39.1001 11.6977 39.0985 11.6962 39.097M11.4119 39.3784L11.6912 39.0921L11.6962 39.097M12.9191 40.8493C13.4597 41.3655 14.1783 41.6535 14.9258 41.6535C15.6732 41.6535 16.3918 41.3655 16.9324 40.8493M12.9191 40.8493L13.1985 40.563L13.1968 40.5614C13.6628 41.0056 14.2819 41.2535 14.9258 41.2535C15.5688 41.2535 16.1872 41.0063 16.6529 40.563M12.9191 40.8493L13.1954 40.56L11.6962 39.097M16.9324 40.8493L16.6561 40.56C16.6551 40.561 16.654 40.562 16.6529 40.563M16.9324 40.8493L16.6495 40.5664L16.6529 40.563M16.6529 40.563L17.9752 39.2408L18.1847 39.0313L18.4461 39.1706C19.1242 39.5319 19.836 39.826 20.5713 40.0488L20.8554 40.1348V40.4316V42.2476V42.2578L20.8552 42.2578C20.8469 42.5849 20.9041 42.9103 21.0236 43.2149C21.143 43.5196 21.3222 43.7972 21.5507 44.0314C21.7791 44.2657 22.0521 44.4518 22.3537 44.5789C22.6552 44.706 22.9791 44.7714 23.3063 44.7713H23.3064H25.4856C25.8064 44.7713 26.124 44.7078 26.4202 44.5846C26.7164 44.4614 26.9853 44.2808 27.2114 44.0532C27.4376 43.8256 27.6164 43.5556 27.7378 43.2586C27.8591 42.9616 27.9205 42.6436 27.9185 42.3228L27.9185 42.3202L27.9185 40.5042V40.2068L28.2034 40.1212C28.9447 39.8984 29.6627 39.6042 30.3471 39.2426L30.6081 39.1047L30.8168 39.3134L32.1209 40.6175M11.6962 39.097C11.2503 38.629 10.9994 38.0086 10.9947 37.3621M10.9947 37.3621C10.9978 36.7186 11.2557 36.1025 11.7121 35.6487L11.7129 35.6479L13.0385 34.3223L13.2454 34.1154L13.1109 33.8556C12.7543 33.1663 12.4595 32.4468 12.2298 31.7056L12.1425 31.4239H11.8477L10.0317 31.4239L10.0292 31.4239C9.70836 31.426 9.39032 31.3646 9.09334 31.2433C8.79637 31.1219 8.52632 30.943 8.29875 30.7169C8.07118 30.4908 7.89058 30.2219 7.76734 29.9257C7.6441 29.6295 7.58066 29.3119 7.58066 28.991V26.8664C7.58066 26.2163 7.8389 25.5929 8.29856 25.1332C8.75823 24.6735 9.38166 24.4153 10.0317 24.4153H11.8477H12.1408L12.2291 24.1358C12.4615 23.3998 12.7619 22.6871 13.1264 22.0069L13.2667 21.7451L13.0567 21.5351L11.7129 20.1913L11.7113 20.1898C11.4846 19.9656 11.3046 19.6987 11.1816 19.4046C11.0586 19.1105 10.9951 18.7949 10.9947 18.4761L10.9948 18.4761L10.9946 18.4668C10.9863 18.1294 11.05 17.7941 11.1813 17.4832C11.3126 17.1723 11.5086 16.8929 11.7563 16.6636L11.7628 16.6575L11.7691 16.6512L13.2371 15.1651M13.2371 15.1651C13.7056 14.7109 14.3338 14.4591 14.9864 14.4638L14.9864 14.4639L14.9946 14.4638C15.3117 14.4595 15.6263 14.5192 15.9198 14.6393C16.2133 14.7594 16.4796 14.9373 16.7027 15.1625L16.7027 15.1626L16.7079 15.1677L18.0517 16.4752L18.2587 16.6766L18.515 16.5435C19.1991 16.1882 19.9127 15.8933 20.648 15.6621L20.928 15.574V15.2805V13.4684M20.928 13.4684C20.9408 12.8385 21.1956 12.2376 21.6398 11.7906C22.0836 11.3439 22.6823 11.0851 23.3117 11.068M23.3117 11.068H25.4856V11.068L25.4907 11.0679C26.1382 11.0596 26.7626 11.3077 27.2277 11.7582C27.6919 12.2078 27.9597 12.8225 27.973 13.4685M27.973 13.4685V15.3895V15.6853L28.2559 15.7719C28.9919 15.9973 29.703 16.297 30.3783 16.6665L30.645 16.8125L30.857 16.5945L32.1377 15.2778M32.1377 15.2778C32.6115 14.8496 33.2274 14.6124 33.8663 14.6124C34.5064 14.6124 35.1235 14.8506 35.5977 15.2804M35.5761 40.6167C35.1103 41.0604 34.4915 41.308 33.8481 41.308C33.205 41.308 32.5867 41.0607 32.1209 40.6175M23.3461 22.7497L23.3387 22.751L23.3314 22.7526C22.0579 23.026 20.9302 23.7602 20.1648 24.8141C19.3994 25.8681 19.0501 27.1675 19.1841 28.4632C19.318 29.7588 19.9257 30.9594 20.8906 31.8344C21.8554 32.7095 23.1094 33.1974 24.412 33.2046L24.4164 33.2046C25.7189 33.1974 26.9729 32.7095 27.9377 31.8344C28.9026 30.9594 29.5103 29.7588 29.6442 28.4632C29.7782 27.1675 29.4289 25.8681 28.6635 24.8141C27.8981 23.7602 26.7704 23.026 25.4969 22.7526L25.497 22.7523L25.4833 22.7499C25.131 22.6869 24.7739 22.6545 24.416 22.6528L24.4113 22.6528C24.0541 22.6554 23.6978 22.6878 23.3461 22.7497Z" stroke="#f7931e" stroke-width="0.8"/>
<circle r="1.51038" transform="matrix(-0.413803 -0.910366 -0.910366 0.413803 24.3779 27.9195)" fill="#f7931e"/>
</svg>
