<svg width="319" height="243" viewBox="0 0 319 243" fill="none" xmlns="http://www.w3.org/2000/svg">
<path opacity="0.4" d="M209.573 228.761C228.636 221.36 238.09 199.907 230.689 180.845C223.288 161.782 201.835 152.328 182.773 159.729C163.71 167.129 154.256 188.582 161.657 207.645C169.057 226.708 190.51 236.162 209.573 228.761Z" fill="#f7931e"/>
<path d="M1.04322 93.4853C22.9978 81.5446 99.1002 118.044 91.7798 125.856C80.4537 137.942 73.8077 82.7968 137.772 91.6615C230.205 104.472 110.371 173.741 211.994 168.963" stroke="#f7931e" stroke-opacity="0.5" stroke-width="0.895947"/>
<path opacity="0.4" d="M245.752 131.728C251.465 129.51 254.298 123.081 252.08 117.368C249.862 111.656 243.433 108.822 237.721 111.04C232.008 113.258 229.175 119.687 231.393 125.4C233.61 131.113 240.039 133.946 245.752 131.728Z" fill="#f7931e"/>
<path opacity="0.4" d="M209.97 128.131C212.302 127.226 213.458 124.602 212.553 122.27C211.648 119.939 209.023 118.782 206.692 119.688C204.36 120.593 203.204 123.217 204.109 125.549C205.014 127.88 207.638 129.037 209.97 128.131Z" fill="#f7931e"/>
<path d="M302.41 158.146L204.438 160.569L208.833 168.9L302.41 158.146Z" fill="#f7931e"/>
<path d="M202.832 184.994L210.376 197.851L302.112 158.194L202.832 184.994Z" fill="#f7931e"/>
<path d="M200.7 167.271L179.095 194.04L297.969 158.961L200.7 167.271Z" fill="white" stroke="#f7931e" stroke-width="0.895947"/>
<path d="M224.472 148.482L205.988 160.073L296.515 157.834L224.472 148.482Z" fill="white" stroke="#f7931e" stroke-width="0.895947"/>
<defs>
<linearGradient id="paint0_linear_2409_40864" x1="159.198" y1="191.958" x2="233.179" y2="196.413" gradientUnits="userSpaceOnUse">
<stop stop-color="#49D1FF"/>
<stop offset="0.5624" stop-color="#49D1FF" stop-opacity="0"/>
</linearGradient>
<linearGradient id="paint1_linear_2409_40864" x1="219.724" y1="160.784" x2="53.818" y2="85.741" gradientUnits="userSpaceOnUse">
<stop stop-color="#8F65E7"/>
<stop offset="1" stop-color="#8F65E7" stop-opacity="0"/>
</linearGradient>
<linearGradient id="paint2_linear_2409_40864" x1="230.689" y1="120.647" x2="252.814" y2="121.979" gradientUnits="userSpaceOnUse">
<stop stop-color="#49D1FF"/>
<stop offset="0.5624" stop-color="#49D1FF" stop-opacity="0"/>
</linearGradient>
<linearGradient id="paint3_linear_2409_40864" x1="203.815" y1="123.594" x2="212.883" y2="124.14" gradientUnits="userSpaceOnUse">
<stop stop-color="#49D1FF"/>
<stop offset="0.5624" stop-color="#49D1FF" stop-opacity="0"/>
</linearGradient>
</defs>
</svg>
