<?xml version="1.0" standalone="no"?>
<!DOCTYPE svg PUBLIC "-//W3C//DTD SVG 20010904//EN"
 "http://www.w3.org/TR/2001/REC-SVG-20010904/DTD/svg10.dtd">
<svg version="1.0" xmlns="http://www.w3.org/2000/svg"
 width="36.000000pt" height="35.000000pt" viewBox="0 0 36.000000 35.000000"
 preserveAspectRatio="xMidYMid meet">

<g transform="translate(0.000000,35.000000) scale(0.100000,-0.100000)"
fill="#f7931e" stroke="none">
<path d="M262 288 c-22 -35 -67 -93 -101 -130 -64 -70 -69 -78 -47 -78 33 0
225 238 210 261 -11 18 -22 8 -62 -53z"/>
<path d="M15 308 c-2 -7 -6 -43 -8 -81 -5 -69 4 -92 22 -58 14 26 14 151 1
151 -6 0 -12 -6 -15 -12z"/>
<path d="M280 50 c-30 -11 -77 -19 -103 -19 -62 -1 -60 -25 2 -29 51 -4 184
34 179 50 -6 18 -18 17 -78 -2z"/>
</g>
</svg>
