<svg width="155" height="56" viewBox="0 0 155 56" fill="#f7931e" xmlns="http://www.w3.org/2000/svg">
<g opacity="0.2" clip-path="url(#clip0_2_1282)">
<path fill-rule="evenodd" clip-rule="evenodd" d="M90.2097 22.5165C89.5427 22.6284 88.8742 22.8672 88.2069 23.106C84.6099 24.1674 80.4164 25.3425 77.2897 27.5565C73.1886 30.5101 71.5521 33.8995 71.5084 37.3249C71.4507 42.1459 74.924 47.1725 79.7687 50.327C84.5687 53.4804 90.6375 54.8862 95.5928 53.0939C98.988 51.9011 101.924 49.1752 103.6 44.3906C105.531 38.9771 104.172 33.7436 101.092 29.1059C99.9378 27.3034 98.5345 25.7493 96.9853 24.1917C99.0782 23.858 101.192 23.5242 103.334 23.1916C110.345 22.3338 117.694 22.2448 124.729 22.7834C134.037 23.3732 142.906 25.4766 151.436 29.2214C152.226 29.4929 153.145 29.1326 153.49 28.3789C153.834 27.6252 153.476 26.7294 152.688 26.331C143.823 22.4517 134.606 20.2134 124.932 19.6154C117.69 19.199 110.13 19.1572 102.914 20.1373C99.9238 20.5777 96.9887 21.0192 94.0839 21.5885C90.3583 18.5861 86.1973 16.2082 82.6468 14.7325C58.8845 5.31579 26.3495 16.1329 4.37273 27.0607C3.60405 27.4241 3.29458 28.3062 3.67894 29.0763C4.06457 29.8463 5.00172 30.1212 5.7704 29.7577C27.0411 19.1948 58.4819 8.47906 81.4798 17.6248C84.1844 18.7008 87.2775 20.4202 90.2097 22.5165ZM93.2559 24.9965C91.8811 25.2194 90.5124 25.5687 89.1446 26.0456C85.8457 27.1136 81.9766 28.0417 79.1142 30.0079C76.0182 32.2226 74.6591 34.7311 74.6267 37.2685C74.5762 41.3282 77.5727 45.2021 81.4928 47.7012C85.4536 50.3282 90.4324 51.7093 94.5246 50.1514C97.1578 49.1953 99.3604 47.087 100.659 43.4359C102.251 38.9032 101.029 34.5618 98.489 30.8246C97.0784 28.6356 95.2615 26.6913 93.2559 24.9965Z" fill="#f7931e"/>
<path fill-rule="evenodd" clip-rule="evenodd" d="M4.10046 28.5756C4.56659 27.9515 5.25663 27.3325 5.94794 26.7135C7.27811 25.4743 8.68342 24.3635 9.43333 23.3651C14.0479 17.3774 19.5065 10.1399 22.0181 2.96286C22.3004 2.20778 21.8715 1.30983 21.0585 1.03777C20.2467 0.76574 19.3591 1.12627 19.0739 2.00819C16.6656 8.80685 11.3821 15.6686 6.95081 21.5335C6.14205 22.5306 4.44692 23.8877 3.08477 25.1261C1.92767 26.2423 0.999574 27.3638 0.645957 28.498C0.401169 29.127 0.630971 30.2743 2.05423 31.0677C4.07303 32.1282 9.72321 33.1441 10.2692 33.2833C15.8007 34.6765 20.6643 36.0545 24.0649 40.9532C24.5558 41.5987 25.5292 41.7472 26.2326 41.3823C26.9389 40.8905 27.1156 39.879 26.6235 39.2335C22.746 33.6896 17.3067 31.7911 11.0002 30.2536C10.5959 30.2445 7.21827 29.661 4.88021 28.8471C4.6285 28.7146 4.34833 28.708 4.10046 28.5756Z" fill="#f7931e"/>
</g>
<defs>
<clipPath id="clip0_2_1282">
<rect width="51.8878" height="153.087" fill="white" transform="matrix(0.022841 -0.999739 0.999748 0.0224479 0.0229492 52.1045)"/>
</clipPath>
</defs>
</svg>
