<svg width="76" height="68" viewBox="0 0 76 68" fill="none" xmlns="http://www.w3.org/2000/svg">
<circle cx="52.3787" cy="34.1112" r="7.80287" stroke="#f7931e" stroke-width="0.8"/>
<path d="M40.6824 25.6117L35.2801 17.5465L27.8991 28.6711L15.0381 32.2532L23.3373 42.7107L22.7699 56.0491L32.6227 52.3728" stroke="#f7931e" stroke-width="0.8" stroke-linecap="round"/>
<path d="M74.8766 67.2893H31.1279C31.6748 55.623 41.3359 46.3264 53.0022 46.3264C54.8251 46.3264 56.4657 46.5087 58.1062 46.8732C67.4028 49.243 74.3297 57.4458 74.8766 67.2893Z" stroke="#f7931e" stroke-width="0.8"/>
<path d="M57.7012 18.3988C45.8833 6.58092 26.7226 6.58092 14.9047 18.3988C6.71455 26.589 4.20041 38.3058 7.36229 48.6611" stroke="#f7931e" stroke-width="0.8" stroke-linecap="round"/>
<circle r="1.51038" transform="matrix(-0.413803 -0.910366 -0.910366 0.413803 35.2842 37.7978)" fill="#f7931e"/>
</svg>
